PathFileType	4	(X/Y/Z)	C:/Users/opensim2020/Desktop/walking_exp_matlab/subject02_walking15_straight_03.trc																																																																																																																												
DataRate	CameraRate	NumFrames	NumMarkers	Units	OrigDataRate	OrigDataStartFrame	OrigNumFrames																																																																																																																								
100	100	4	42	mm	100	1290	103																																																																																																																								
Frame#	Time	LFHD			RFHD			LBHD			RBHD			C7			T10			CLAV			STRN			RBAK			LSHO			LUPA			LELB			LFRM			LWRA			LWRB			LFIN			RSHO			RUPA			RELB			RFRM			RWRA			RWRB			RFIN			LASI			RASI			LPSI			RPSI			LTHI			LKNE			LTIB			LANK			LHEE			LTOE			RTHI			RKNE			RTIB			RANK			RHEE			RTOE			*39			*40			*41		
		X1	Y1	Z1	X2	Y2	Z2	X3	Y3	Z3	X4	Y4	Z4	X5	Y5	Z5	X6	Y6	Z6	X7	Y7	Z7	X8	Y8	Z8	X9	Y9	Z9	X10	Y10	Z10	X11	Y11	Z11	X12	Y12	Z12	X13	Y13	Z13	X14	Y14	Z14	X15	Y15	Z15	X16	Y16	Z16	X17	Y17	Z17	X18	Y18	Z18	X19	Y19	Z19	X20	Y20	Z20	X21	Y21	Z21	X22	Y22	Z22	X23	Y23	Z23	X24	Y24	Z24	X25	Y25	Z25	X26	Y26	Z26	X27	Y27	Z27	X28	Y28	Z28	X29	Y29	Z29	X30	Y30	Z30	X31	Y31	Z31	X32	Y32	Z32	X33	Y33	Z33	X34	Y34	Z34	X35	Y35	Z35	X36	Y36	Z36	X37	Y37	Z37	X38	Y38	Z38	X39	Y39	Z39	X40	Y40	Z40	X41	Y41	Z41	X42	Y42	Z42
																																																																																																																															
13	0.12	-570.30981	1692.51807	1388.46057	-568.18622	1684.35962	1532.71448	-709.65997	1634.45142	1388.56812	-719.43219	1626.31421	1531.93933	-778.37585	1501.54407	1467.70569	-852.44501	1231.97473	1485.63733	-646.26941	1423.14453	1458.84692	-606.29492	1249.02917	1480.71582	-849.63568	1338.04517	1545.33936	-716.68298	1458.2793	1289.33374	-766.32959	1266.20947	1203.87695	-791.15558	1133.58691	1175.93921	-808.51447	1007.43799	1143.04822	-771.52386	874.98505	1134.63306	-824.55664	887.55914	1121.96094	-816.40045	828.32257	1096.42493	-704.62183	1480.36316	1647.94629	-707.47449	1318.86365	1773.09546	-662.06	1186.47961	1829.97107	-588.23138	1093.93994	1861.27173	-493.94223	997.93799	1853.75745	-532.18469	980.15363	1891.66797	-469.95911	945.40186	1900.73438	-638.03912	951.57501	1373.3136	-665.70435	947.73151	1630.93079	-850.13452	1009.9115	1431.36096	-865.19727	1018.47906	1543.20288	-616.35962	655.91187	1322.76392	-563.37152	471.56302	1382.61157	-572.43866	279.89487	1414.19275	-508.06503	69.28011	1466.51465	-524.61328	43.39592	1528.27625	-358.78391	64.28737	1430.98157	-827.09509	665.13135	1687.1864	-887.71143	461.77164	1650.75366	-974.31171	294.46432	1657.00952	-1025.79956	103.3741	1627.4729	-1059.40674	49.38637	1570.85547	-886.76575	32.06164	1670.77234	-659.75214	1776.14124	1475.81152	2845.25098	1034.34888	-3360.41309	NaN	NaN	NaN
14	0.13	-557.56744	1690.60999	1389.87073	-554.63306	1682.36926	1534.2533	-696.8587	1632.23877	1390.58069	-706.01593	1624.13428	1534.04431	-765.02588	1499.11377	1469.80176	-838.88007	1229.76453	1487.59277	-632.74335	1420.79736	1460.29651	-592.90149	1246.70728	1481.94763	-835.87439	1335.76733	1547.36267	-704.01086	1456.32446	1291.14587	-756.414	1265.40808	1205.24426	-783.68597	1133.80713	1176.71924	-805.5434	1009.07471	1142.33179	-774.49432	875.48138	1131.73279	-826.65808	890.36877	1119.46899	-821.40637	831.38013	1093.05798	-690.62836	1477.85767	1649.74146	-693.00641	1316.76831	1774.75354	-645.87	1185.12488	1832.47363	-569.53876	1094.24866	1863.12708	-472.96478	1000.5589	1854.51599	-510.51077	981.7215	1892.53955	-447.44092	948.73724	1901.21887	-625.19617	948.33557	1373.88086	-652.29895	945.39832	1632.27673	-837.18109	1007.21741	1433.44446	-852.38654	1015.63263	1544.61255	-606.83911	651.52539	1323.65466	-550.22534	469.0769	1384.81348	-551.36591	277.06488	1416.26794	-478.76889	68.85786	1467.17126	-493.23938	42.01084	1529.51294	-329.80148	68.99474	1429.50586	-817.79431	664.59338	1688.80103	-881.0592	461.97897	1652.05408	-970.36798	296.05612	1657.68176	-1024.64026	105.65074	1628.146	-1058.90405	52.62929	1571.44629	-886.61145	32.0159	1671.12769	-646.56818	1774.12988	1477.88123	2845.88525	1034.45569	-3357.17822	NaN	NaN	NaN
15	0.14	-544.64575	1688.79773	1391.25659	-541.23718	1680.5094	1535.63806	-683.83954	1630.30615	1392.44373	-692.50708	1621.99292	1535.88586	-751.55542	1496.91138	1471.49854	-825.1012	1227.64136	1489.28308	-619.10938	1418.66614	1461.49695	-579.12616	1244.55518	1482.86121	-822.0545	1333.43188	1548.80823	-691.18451	1454.5481	1292.61707	-746.23206	1264.68872	1206.39368	-775.42035	1134.03125	1177.73303	-802.1391	1011.04095	1142.03711	-776.27631	876.31	1129.73132	-828.13666	893.79431	1117.67944	-825.25873	834.61548	1090.56287	-676.66516	1475.66028	1651.24121	-679.30859	1314.28589	1776.07422	-630.21722	1183.73438	1834.77661	-551.47864	1094.40967	1864.56104	-452.93747	1003.31232	1854.80371	-489.43951	983.35181	1893.01086	-425.5105	952.18842	1901.45349	-612.01093	945.53796	1374.42981	-638.6582	943.26874	1633.53687	-824.03754	1004.84448	1435.36035	-839.15179	1012.91833	1545.90479	-597.71545	647.1781	1324.71289	-536.75623	466.51614	1386.45313	-531.92798	274.8941	1417.44104	-452.75876	68.79042	1467.48132	-466.25052	41.3345	1529.53186	-303.71881	72.9992	1429.34485	-808.00745	664.09222	1690.54883	-873.65277	462.2598	1653.65833	-965.95856	297.58197	1658.57544	-1023.30438	108.31387	1629.16919	-1058.44092	56.43932	1572.26331	-886.3952	31.87302	1671.39832	-633.44543	1772.20032	1479.6936	NaN	NaN	NaN	NaN	NaN	NaN
16	0.15	-531.54596	1687.23511	1392.52075	-527.7843	1678.73804	1536.87732	-670.74359	1628.65454	1393.99048	-678.95599	1620.06506	1537.43909	-737.92108	1494.85254	1472.84631	-811.19867	1225.77808	1490.80005	-605.32684	1416.8208	1462.31262	-565.15741	1242.80469	1483.59497	-808.19775	1331.01306	1549.63733	-678.12976	1452.92932	1293.77722	-735.52417	1264.0144	1207.37012	-767.10443	1134.41296	1178.61877	-798.68262	1013.48151	1141.76282	-778.01276	877.69415	1127.83765	-829.03778	897.3584	1116.01331	-828.75983	838.53467	1088.60303	-662.63385	1473.36694	1652.59619	-665.76447	1311.77612	1777.21558	-615.16235	1182.17896	1836.74255	-534.07635	1094.4552	1865.65137	-433.1489	1005.98279	1854.9397	-469.34283	984.763	1893.05652	-404.7225	955.40796	1901.04309	-598.45898	943.42053	1375.10437	-624.7923	941.16815	1634.64148	-810.46631	1002.73633	1437.05103	-825.44397	1010.45166	1547.08057	-587.99457	644.43341	1325.7832	-523.21417	464.3447	1387.84863	-513.91217	273.01947	1418.45508	-429.79474	68.40277	1467.45752	-443.18503	40.46798	1529.2854	-280.51907	75.79692	1430.203	-797.29791	663.75397	1692.24585	-865.27484	462.76648	1655.52502	-960.51678	299.69849	1660.12598	-1021.7041	111.51363	1630.57825	-1057.78723	60.98681	1573.49927	-886.17865	31.7485	1671.78516	-620.24457	1770.43091	1481.31946	NaN	NaN	NaN	NaN	NaN	NaN
